# xmcd CD database file
#
# Track frame offsets:
#	150
#	8157
#	26621
#	37806
#	51110
#	61634
#	75857
#	86327
#	101960
#	116229
#	127133
#	148034
#	157412
#	173051
#	182666
#	200071
#	211543
#	227010
#	236761
#	252103
#
# Disc length: 3572 seconds
#
# Revision: 0
# Processed by: cddbd v1.5.2PL0 Copyright (c) Steve Scherf et al.
# Submitted via: CDex 1.70beta2
#
DISCID=090df214
DTITLE=Peggy Lee - Complete Capitol Small Group Transcriptions (1)
DYEAR=1900
DGENRE=Jazz
TTITLE0=I can't believe that you're in love with me
TTITLE1=Lonseone road
TTITLE2=Them there eyes
TTITLE3=You brought a new kind of love to me
TTITLE4=The glory of love
TTITLE5=Melancholy lullaby
TTITLE6=Taking a chance on love
TTITLE7=Cottage for sale
TTITLE8=Fools rush in
TTITLE9=Sometime I'm happy
TTITLE10=The way youlook tonight
TTITLE11=Love is just around the corner
TTITLE12=Porgy
TTITLE13=Blue skies
TTITLE14=I've had my moments
TTITLE15=Blue moon
TTITLE16=Can't help lovin' that man
TTITLE17=Mean to me
TTITLE18=I'm confessin'
TTITLE19=Summertime
EXTD=
EXTT0=
EXTT1=
EXTT2=
EXTT3=
EXTT4=
EXTT5=
EXTT6=
EXTT7=
EXTT8=
EXTT9=
EXTT10=
EXTT11=
EXTT12=
EXTT13=
EXTT14=
EXTT15=
EXTT16=
EXTT17=
EXTT18=
EXTT19=
PLAYORDER=
